<svg height="499.736" viewBox="0 0 905.333 499.736" width="905.333" xmlns="http://www.w3.org/2000/svg"><path d="m102.333 107.513c-4.142 0-7.5-3.358-7.5-7.5s3.358-7.5 7.5-7.5 7.5 3.358 7.5 7.5-3.358 7.5-7.5 7.5z" fill="none" stroke="#000" stroke-width="3"/><path d="m102.333 495.236c-4.142 0-7.5-3.358-7.5-7.5s3.358-7.5 7.5-7.5 7.5 3.358 7.5 7.5-3.358 7.5-7.5 7.5z" fill="none" stroke="#000" stroke-width="3"/><path d="m807.812 107.513c-4.142 0-7.5-3.358-7.5-7.5s3.358-7.5 7.5-7.5 7.5 3.358 7.5 7.5-3.358 7.5-7.5 7.5z" fill="none" stroke="#000" stroke-width="3"/><path d="m807.812 494.84c-4.142 0-7.5-3.358-7.5-7.5s3.358-7.5 7.5-7.5 7.5 3.358 7.5 7.5-3.358 7.5-7.5 7.5z" fill="none" stroke="#000" stroke-width="3"/><path d="m523.286 288.329c-2.9 0-5.25-2.351-5.25-5.25 0-2.9 2.35-5.25 5.25-5.25 2.899 0 5.25 2.35 5.25 5.25 0 2.899-2.351 5.25-5.25 5.25z"/><path d="m523.286 288.329c-2.9 0-5.25-2.351-5.25-5.25 0-2.9 2.35-5.25 5.25-5.25 2.899 0 5.25 2.35 5.25 5.25 0 2.899-2.351 5.25-5.25 5.25z" fill="none" stroke="#000" stroke-width="3"/><path d="m523.286 492.986c-2.9 0-5.25-2.351-5.25-5.25 0-2.9 2.35-5.25 5.25-5.25 2.899 0 5.25 2.35 5.25 5.25 0 2.899-2.351 5.25-5.25 5.25z"/><path d="m523.286 492.986c-2.9 0-5.25-2.351-5.25-5.25 0-2.9 2.35-5.25 5.25-5.25 2.899 0 5.25 2.35 5.25 5.25 0 2.899-2.351 5.25-5.25 5.25z" fill="none" stroke="#000" stroke-width="3"/><path d="m597.498 492.59c-2.899 0-5.25-2.351-5.25-5.25 0-2.9 2.351-5.25 5.25-5.25 2.9 0 5.25 2.35 5.25 5.25 0 2.899-2.35 5.25-5.25 5.25z"/><path d="m597.498 492.59c-2.899 0-5.25-2.351-5.25-5.25 0-2.9 2.351-5.25 5.25-5.25 2.9 0 5.25 2.35 5.25 5.25 0 2.899-2.35 5.25-5.25 5.25z" fill="none" stroke="#000" stroke-width="3"/><path d="m278.016 105.263c-2.9 0-5.25-2.35-5.25-5.25 0-2.899 2.35-5.25 5.25-5.25 2.899 0 5.25 2.351 5.25 5.25 0 2.9-2.351 5.25-5.25 5.25z"/><path d="m278.016 105.263c-2.9 0-5.25-2.35-5.25-5.25 0-2.899 2.35-5.25 5.25-5.25 2.899 0 5.25 2.351 5.25 5.25 0 2.9-2.351 5.25-5.25 5.25z" fill="none" stroke="#000" stroke-width="3"/><path d="m595.592 288.329c-2.899 0-5.25-2.351-5.25-5.25 0-2.9 2.351-5.25 5.25-5.25 2.9 0 5.25 2.35 5.25 5.25 0 2.899-2.35 5.25-5.25 5.25z"/><path d="m595.592 288.329c-2.899 0-5.25-2.351-5.25-5.25 0-2.9 2.351-5.25 5.25-5.25 2.9 0 5.25 2.35 5.25 5.25 0 2.899-2.35 5.25-5.25 5.25z" fill="none" stroke="#000" stroke-width="3"/><path d="m686.285 492.59c-2.899 0-5.25-2.351-5.25-5.25 0-2.9 2.351-5.25 5.25-5.25 2.9 0 5.25 2.35 5.25 5.25 0 2.899-2.35 5.25-5.25 5.25z"/><path d="m686.285 492.59c-2.899 0-5.25-2.351-5.25-5.25 0-2.9 2.351-5.25 5.25-5.25 2.9 0 5.25 2.35 5.25 5.25 0 2.899-2.35 5.25-5.25 5.25z" fill="none" stroke="#000" stroke-width="3"/><path d="m523.286 105.263c-2.9 0-5.25-2.35-5.25-5.25 0-2.899 2.35-5.25 5.25-5.25 2.899 0 5.25 2.351 5.25 5.25 0 2.9-2.351 5.25-5.25 5.25z"/><path d="m523.286 105.263c-2.9 0-5.25-2.35-5.25-5.25 0-2.899 2.35-5.25 5.25-5.25 2.899 0 5.25 2.351 5.25 5.25 0 2.9-2.351 5.25-5.25 5.25z" fill="none" stroke="#000" stroke-width="3"/><text transform="translate(484.753 377.092)"><tspan fill="#656565" font-family="Avenir-Medium" font-size="31" x="-18.088" y="8.667">R1</tspan></text><text transform="translate(410.753 60.146)"><tspan fill="#656565" font-family="Avenir-Medium" font-size="31" x="-26.986" y="8.667">TR1</tspan></text><text transform="translate(731.568 282.579)"><tspan fill="#656565" font-family="Avenir-Medium" font-size="31" x="-37.618" y="4.5">SCR1</tspan></text><text transform="translate(622.625 344.173)"><tspan fill="#656565" font-family="Avenir-Medium" font-size="31" x="-19.53" y="8.667">C1</tspan></text><text transform="translate(211.623 138.135)"><tspan fill="#656565" font-family="Avenir-Medium" font-size="31" x="-33.015" y="8.5">Fuse</tspan></text><text transform="translate(468.695 227.83)"><tspan fill="#656565" font-family="Avenir-Medium" font-size="31" x="-29.295" y="8.667">ZD1</tspan></text><text transform="matrix(0 -1 1 0 47.167 291.898)"><tspan fill="#656565" font-family="Avenir-Medium" font-size="31" x="-72.679" y="-16.167">Smoothed </tspan><tspan fill="#656565" font-family="Avenir-Medium" font-size="31" x="-62.868" y="25.833">DC input</tspan></text><text transform="matrix(0 -1 1 0 862.833 311.629)"><tspan fill="#656565" font-family="Avenir-Medium" font-size="31" x="-69.502" y="-11.5">Protected </tspan><tspan fill="#656565" font-family="Avenir-Medium" font-size="31" x="-47.383" y="30.5">output</tspan></text><path d="m659.907 199.663 26.47 45 26.287-45z"/><g stroke="#000"><path d="m659.907 199.663 26.47 45 26.287-45z" fill="none"/><path d="m659.907 244.663h52.757" fill="none" stroke-width="16"/><path d="m523.286 105.263v382.473" fill="none" stroke-width="3"/><path d="m597.498 283.079v204.657" fill="none" stroke-width="3"/><path d="m371.871 127.103v138.829" fill="none" stroke-width="3"/><path d="m278.016 5.5v91.888" fill="none" stroke-width="3"/><path d="m678.87 250.663-32.415 32.416" fill="none" stroke-width="3"/><path d="m646.455 283.079h-123.264" fill="none" stroke-width="3"/><path d="m800.312 100.013h-394.211" fill="none" stroke-width="3"/><path d="m686.286 5.5h-408.27" fill="none" stroke-width="3"/><path d="m337.801 100.013h-103.503" fill="none" stroke-width="3"/><path d="m189.948 100.013h-80.115" fill="none" stroke-width="3"/><path d="m800.312 487.736h-690.479" fill="none" stroke-width="3"/></g><path d="m510.756 342.223h22.255v70.738h-22.255z" fill="#fff"/><path d="m510.756 342.223h22.255v70.738h-22.255z" fill="none" stroke="#000" stroke-width="2"/><text transform="translate(340.524 309.156)"><tspan fill="#656565" font-family="Avenir-Medium" font-size="31" x="-68.618" y="-14.603">Regulator </tspan><tspan fill="#656565" font-family="Avenir-Medium" font-size="31" x="-49.414" y="27.397">control</tspan></text><path d="m102.333 473.135v-344.2" fill="none" stroke="#a3a3a3" stroke-width="5"/><path d="m102.333 128.935 5.4 3.6-5.4-14.4-5.4 14.4z" fill="#a3a3a3" stroke="#a3a3a3" stroke-width="5"/><path d="m807.812 473.135v-344.2" fill="none" stroke="#a3a3a3" stroke-width="5"/><path d="m807.812 128.935 5.4 3.6-5.4-14.4-5.4 14.4z" fill="#a3a3a3" stroke="#a3a3a3" stroke-width="5"/><path d="m523.365 194.878-17.214 26.385h34.27z"/><path d="m523.365 194.878-17.214 26.385h34.27z" fill="none" stroke="#000" stroke-width="3"/><path d="m501.978 191.08h42.616" fill="none" stroke="#000" stroke-width="8"/><path d="m540.859 191.08 3.735-13.62" fill="none" stroke="#000" stroke-width="6"/><path d="m501.978 204.701 3.735-13.621" fill="none" stroke="#000" stroke-width="6"/><path d="m575.691 368.195h42.616v17h-42.616z" fill="#fff"/><path d="m576.191 367.006h42.616" fill="none" stroke="#000" stroke-width="12"/><path d="m576.191 388.177h42.616" fill="none" stroke="#000" stroke-width="12"/><path d="m196.373 106.438c-3.548 0-6.425-2.877-6.425-6.425s2.877-6.425 6.425-6.425 6.425 2.877 6.425 6.425-2.877 6.425-6.425 6.425z" fill="none" stroke="#000" stroke-width="2"/><path d="m227.873 106.438c-3.548 0-6.425-2.877-6.425-6.425s2.877-6.425 6.425-6.425 6.425 2.877 6.425 6.425-2.877 6.425-6.425 6.425z" fill="none" stroke="#000" stroke-width="2"/><path d="m197.697 93.588 28.5 12.85" fill="none" stroke="#000" stroke-width="2"/><path d="m197.697 106.438 26.5-11.757" fill="none" stroke="#000" stroke-width="2"/><path d="m415.908 127.016c0 24.321-19.716 44.037-44.037 44.037s-44.037-19.716-44.037-44.037c0-24.32 19.716-44.036 44.037-44.036s44.037 19.716 44.037 44.036z" fill="none" stroke="#000" stroke-width="3"/><path d="m340.382 127.103v-8.049h62.977v8.049z" fill="none" stroke="#000" stroke-width="3"/><path d="m372.481 127.103v43.95" fill="none" stroke="#000" stroke-width="2"/><path d="m338.389 101.06 21.781 17.994" fill="none" stroke="#000" stroke-width="2"/><path d="m397.003 108.575-12.684 10.479" fill="none" stroke="#000" stroke-width="2"/><path d="m399.296 111.351 5.109-8.89-9.694 3.339z" stroke="#000" stroke-width="2"/><path d="m680.285 92.095h11v14.836h-11z" fill="#fff"/><path d="m686.286 5.5v482.236" fill="none" stroke="#000" stroke-width="3"/></svg>